<svg width="40" height="40" viewBox="0 0 40 40" fill="none" xmlns="http://www.w3.org/2000/svg">
<circle cx="20" cy="20" r="20" fill="#757AEF"/>
<path d="M27.0013 19.161C27.0018 19.3104 26.9688 19.4581 26.9048 19.593C26.8407 19.728 26.7473 19.8469 26.6313 19.941L20.6313 24.771C20.4523 24.9181 20.2279 24.9985 19.9963 24.9985C19.7646 24.9985 19.5402 24.9181 19.3613 24.771L13.3613 19.771C13.157 19.6013 13.0286 19.3574 13.0042 19.093C12.9799 18.8285 13.0615 18.5653 13.2313 18.361C13.401 18.1568 13.6449 18.0284 13.9093 18.004C14.1738 17.9796 14.437 18.0613 14.6413 18.231L20.0013 22.701L25.3613 18.381C25.508 18.2588 25.6868 18.1811 25.8763 18.1572C26.0659 18.1333 26.2583 18.1642 26.4308 18.2463C26.6034 18.3284 26.7488 18.4581 26.8499 18.6202C26.9509 18.7823 27.0035 18.97 27.0013 19.161Z" fill="white"/>
</svg>
