<svg width="442" height="269" viewBox="0 0 442 269" fill="none" xmlns="http://www.w3.org/2000/svg">
<path d="M211.334 0.62793H48.7454C37.6997 0.62793 28.7454 9.58222 28.7454 20.6279V249C28.7454 260.046 37.6997 269 48.7454 269H421.745C432.791 269 441.745 260.046 441.745 249V20.6279C441.745 9.58223 432.791 0.62793 421.745 0.62793H263.461L242.4 21.4088C240.435 23.3484 237.163 23.4388 235.094 21.6109L211.334 0.62793Z" fill="#969AF7"/>
<path d="M211.334 0.62793H48.7454C37.6997 0.62793 28.7454 9.58222 28.7454 20.6279V249C28.7454 260.046 37.6997 269 48.7454 269H421.745C432.791 269 441.745 260.046 441.745 249V20.6279C441.745 9.58223 432.791 0.62793 421.745 0.62793H263.461L242.4 21.4088C240.435 23.3484 237.163 23.4388 235.094 21.6109L211.334 0.62793Z" fill="url(#paint0_linear_6403_14)"/>
<path d="M46.6281 66.556C48.1662 64.2626 50.6601 64.2626 52.1983 66.556L95.6727 131.374C97.2109 133.668 97.2109 137.386 95.6727 139.679L52.1983 204.498C50.6601 206.791 48.1662 206.791 46.628 204.498L3.15363 139.679C1.61545 137.386 1.61546 133.668 3.15363 131.374L46.6281 66.556Z" fill="#969AF7"/>
<path d="M46.6281 66.556C48.1662 64.2626 50.6601 64.2626 52.1983 66.556L95.6727 131.374C97.2109 133.668 97.2109 137.386 95.6727 139.679L52.1983 204.498C50.6601 206.791 48.1662 206.791 46.628 204.498L3.15363 139.679C1.61545 137.386 1.61546 133.668 3.15363 131.374L46.6281 66.556Z" fill="url(#paint1_linear_6403_14)"/>
<mask id="mask0_6403_14" style="mask-type:alpha" maskUnits="userSpaceOnUse" x="0" y="1" width="442" height="268">
<path d="M420.596 1C432.417 1 442 9.94187 442 20.9723V85.439L412.048 131.394C410.512 133.75 410.512 137.57 412.048 139.926L442 185.881V249.028C442 260.058 432.417 269 420.596 269H21.4044C9.58307 269 0 260.058 0 249.028V20.9723C0 9.94189 9.58307 1 21.4044 1H420.596Z" fill="#969AF7"/>
<path d="M420.596 1C432.417 1 442 9.94187 442 20.9723V85.439L412.048 131.394C410.512 133.75 410.512 137.57 412.048 139.926L442 185.881V249.028C442 260.058 432.417 269 420.596 269H21.4044C9.58307 269 0 260.058 0 249.028V20.9723C0 9.94189 9.58307 1 21.4044 1H420.596Z" fill="url(#paint2_linear_6403_14)"/>
</mask>
<g mask="url(#mask0_6403_14)">
<rect opacity="0.06" x="361.2" y="111.372" width="441.517" height="441.517" rx="30" transform="rotate(45 361.2 111.372)" fill="white"/>
</g>
<defs>
<linearGradient id="paint0_linear_6403_14" x1="-51.5002" y1="-20.3892" x2="442.182" y2="53.5654" gradientUnits="userSpaceOnUse">
<stop offset="0.0851517" stop-color="#041080"/>
<stop offset="1" stop-color="#0926C0"/>
</linearGradient>
<linearGradient id="paint1_linear_6403_14" x1="-51.5002" y1="-20.3892" x2="442.182" y2="53.5654" gradientUnits="userSpaceOnUse">
<stop offset="0.0851517" stop-color="#041080"/>
<stop offset="1" stop-color="#0926C0"/>
</linearGradient>
<linearGradient id="paint2_linear_6403_14" x1="495.774" y1="-19.988" x2="-0.296523" y2="54.8091" gradientUnits="userSpaceOnUse">
<stop offset="0.0851517" stop-color="#041080"/>
<stop offset="1" stop-color="#0926C0"/>
</linearGradient>
</defs>
</svg>
